<svg xmlns="http://www.w3.org/2000/svg" width="24" height="24" viewBox="0 0 24 24" fill="none" stroke="currentColor" stroke-width="2" stroke-linecap="round" stroke-linejoin="round">
  <path d="M22.54 6.42a2.78 2.78 0 0 0-1.94-2C18.88 4 12 4 12 4s-6.88 0-8.6.46a2.78 2.78 0 0 0-1.94 2A29 29 0 0 0 1 12a29 29 0 0 0 .46 5.54 2.78 2.78 0 0 0 1.94 2C3.12 20 12 20 12 20s8.88 0 10.6-.46a2.78 2.78 0 0 0 1.94-2 29 29 0 0 0 .46-5.54 2.78 2.78 0 0 0-1.94-2z"></path>
  <polygon points="9.75 15.02 15.5 12 9.75 8.98 9.75 15.02"></polygon>
</svg>
